<svg version="1.1" xmlns="http://www.w3.org/2000/svg" xmlns:xlink="http://www.w3.org/1999/xlink" x="0px" y="0px"
	 width="954.545px" height="200px" viewBox="0 0 954.545 200" style="enable-background:new 0 0 954.545 200;" xml:space="preserve"
	>
<g id="Warstwa_1_1_">
	<g id="Layer_1">
		<g>
			<path style="fill:#234182;" d="M931.741,2h-128c-14.359,0-27.533,11.64-29.424,26c-1.894,14.359,8.218,26,22.574,26h36.003
				l-15.566,118c-2.036,15.464,8.849,28,24.312,28c15.463,0,29.649-12.536,31.688-28l15.566-118h35.998
				c14.356,0,27.531-11.641,29.425-26C956.208,13.64,946.097,2,931.741,2z"/>
			<path style="fill:#234182;" d="M146.531,2H50.53C35.064,2,20.881,14.536,18.843,30L0.245,170c-2.036,15.464,8.849,28,24.312,28
				h96c14.357,0,27.532-11.643,29.423-26c1.893-14.359-8.22-26-22.575-26H59.403L71.68,54h68c14.357,0,27.533-11.641,29.423-26
				C170.999,13.64,160.888,2,146.531,2z"/>
			<circle style="fill:#234182;" cx="111.921" cy="100" r="31"/>
			<path style="fill:#234182;" d="M736.025,0c-15.467,0-29.649,12.535-31.688,28l-9.298,70.623l-57.023-87.315
				C633.816,4.447,626.235,0,617.025,0c-15.467,0-29.649,12.536-31.688,28L566.38,172c-2.036,15.465,8.849,28,24.313,28
				c15.464,0,29.647-12.535,31.687-28l9.095-69.084l57.892,86.796c0.023,0.038,0.052,0.078,0.078,0.117l0.006,0.009
				c4.315,6.207,11.56,10.162,20.244,10.162c15.467,0,29.649-12.535,31.688-28L760.34,28C762.376,12.536,751.491,0,736.025,0z"/>
			<path style="fill:#234182;" d="M464.115,0c-60.13,0-105.08,37.389-113.166,100c-8.138,63,26.803,100,86.835,100
				c59.876,0,104.714-37,113.165-100C559.348,37.38,524.268,0,464.115,0z M494.95,100c-4.082,31-23.284,48-50.319,48
				c-27.484,0-41.762-17-37.681-48s22.86-48,50.316-48C484.433,52,499.032,69,494.95,100z"/>
			<path style="fill:#234182;" d="M292.167,140.477c-7.703,4.972-17.005,7.523-27.536,7.523c-27.484,0-41.762-17-37.681-48
				c4.081-31,22.861-48,50.317-48c10.783,0,19.582,2.683,26.021,7.851l0.004-0.004c4.323,3.562,10.118,5.699,16.734,5.699
				c15.463,0,29.531-11.642,31.423-26c1.062-8.062-1.859-15.309-7.401-20.078c-0.016-0.015,0.019,0.014,0,0l0,0
				C329.411,6.822,308.969,0,284.115,0c-60.13,0-105.08,37.389-113.166,100c-8.138,63,26.803,100,86.835,100
				c23.424,0,44.724-6.314,62.176-17.741c7.807-4.706,13.528-12.471,14.685-21.257c1.893-14.359-9.112-26-24.575-26
				C303.592,135.002,297.362,137.047,292.167,140.477z"/>
		</g>
	</g>
	<g id="Layer_2">
	</g>
</g>
<g id="Warstwa_1">
</g>
</svg>
